<svg width="20" height="20" viewBox="0 0 20 20" fill="none" xmlns="http://www.w3.org/2000/svg">
<g clip-path="url(#clip0_69_1190)">
<path d="M19.1484 7.51833C19.3694 7.51833 19.5813 7.43054 19.7376 7.27426C19.8939 7.11798 19.9817 6.90601 19.9817 6.685V3.315C19.9817 2.43094 19.6305 1.5831 19.0054 0.957977C18.3803 0.332856 17.5324 -0.0183334 16.6484 -0.0183334H13.315C13.094 -0.0183334 12.882 0.069464 12.7258 0.225744C12.5695 0.382025 12.4817 0.593986 12.4817 0.815C12.4817 1.03601 12.5695 1.24798 12.7258 1.40426C12.882 1.56054 13.094 1.64833 13.315 1.64833H16.6484C16.8023 1.65047 16.9552 1.67432 17.1025 1.71917L10 8.82167L2.89836 1.72C3.0282 1.68613 3.16168 1.66822 3.29586 1.66667H6.66669C6.88771 1.66667 7.09967 1.57887 7.25595 1.42259C7.41223 1.26631 7.50002 1.05435 7.50002 0.833333C7.50002 0.612319 7.41223 0.400358 7.25595 0.244078C7.09967 0.0877973 6.88771 -1.00583e-07 6.66669 -1.00583e-07H3.29586C2.4118 -1.00583e-07 1.56396 0.351189 0.938835 0.976311C0.313714 1.60143 -0.0374756 2.44928 -0.0374756 3.33333V6.66667C-0.0374756 6.88768 0.0503218 7.09964 0.206602 7.25592C0.362882 7.4122 0.574844 7.5 0.795858 7.5C1.01687 7.5 1.22883 7.4122 1.38511 7.25592C1.54139 7.09964 1.62919 6.88768 1.62919 6.66667V3.33333C1.6314 3.1791 1.65524 3.02594 1.70002 2.87833L8.82169 10L1.69586 17.1258C1.65361 16.9826 1.63118 16.8343 1.62919 16.685V13.315C1.62919 13.094 1.54139 12.882 1.38511 12.7257C1.22883 12.5695 1.01687 12.4817 0.795858 12.4817C0.574844 12.4817 0.362882 12.5695 0.206602 12.7257C0.0503218 12.882 -0.0374756 13.094 -0.0374756 13.315V16.685C-0.0374756 17.5691 0.313714 18.4169 0.938835 19.042C1.56396 19.6671 2.4118 20.0183 3.29586 20.0183H6.62919C6.8502 20.0183 7.06217 19.9305 7.21845 19.7743C7.37473 19.618 7.46252 19.406 7.46252 19.185C7.46252 18.964 7.37473 18.752 7.21845 18.5957C7.06217 18.4395 6.8502 18.3517 6.62919 18.3517H3.29586C3.15675 18.35 3.01842 18.3307 2.88419 18.2942L10 11.1783L17.0884 18.2667C16.9454 18.3089 16.7974 18.3313 16.6484 18.3333H13.2775C13.0565 18.3333 12.8445 18.4211 12.6883 18.5774C12.532 18.7337 12.4442 18.9457 12.4442 19.1667C12.4442 19.3877 12.532 19.5996 12.6883 19.7559C12.8445 19.9122 13.0565 20 13.2775 20H16.6484C17.5324 20 18.3803 19.6488 19.0054 19.0237C19.6305 18.3986 19.9817 17.5507 19.9817 16.6667V13.3333C19.9817 13.1123 19.8939 12.9004 19.7376 12.7441C19.5813 12.5878 19.3694 12.5 19.1484 12.5C18.9273 12.5 18.7154 12.5878 18.5591 12.7441C18.4028 12.9004 18.315 13.1123 18.315 13.3333V16.6667C18.3132 16.8058 18.2936 16.9441 18.2567 17.0783L11.1784 10L18.2617 2.91667C18.2956 3.04678 18.3135 3.18055 18.315 3.315V6.685C18.315 6.90601 18.4028 7.11798 18.5591 7.27426C18.7154 7.43054 18.9273 7.51833 19.1484 7.51833Z" fill="#374258"/>
<path d="M19.1667 7.5C19.3877 7.5 19.5996 7.4122 19.7559 7.25592C19.9122 7.09964 20 6.88768 20 6.66667V2.5C20 1.83696 19.7366 1.20107 19.2678 0.732233C18.7989 0.263392 18.163 0 17.5 0L13.3333 0C13.1123 0 12.9004 0.0877974 12.7441 0.244078C12.5878 0.400358 12.5 0.61232 12.5 0.833333C12.5 1.05435 12.5878 1.26631 12.7441 1.42259C12.9004 1.57887 13.1123 1.66667 13.3333 1.66667H17.155L10 8.82167L2.845 1.66667H6.66667C6.88768 1.66667 7.09964 1.57887 7.25592 1.42259C7.4122 1.26631 7.5 1.05435 7.5 0.833333C7.5 0.61232 7.4122 0.400358 7.25592 0.244078C7.09964 0.0877974 6.88768 0 6.66667 0L2.5 0C1.83696 0 1.20107 0.263392 0.732233 0.732233C0.263392 1.20107 0 1.83696 0 2.5L0 6.66667C0 6.88768 0.0877974 7.09964 0.244078 7.25592C0.400358 7.4122 0.61232 7.5 0.833333 7.5C1.05435 7.5 1.26631 7.4122 1.42259 7.25592C1.57887 7.09964 1.66667 6.88768 1.66667 6.66667V2.845L8.82167 10L1.66667 17.155V13.3333C1.66667 13.1123 1.57887 12.9004 1.42259 12.7441C1.26631 12.5878 1.05435 12.5 0.833333 12.5C0.61232 12.5 0.400358 12.5878 0.244078 12.7441C0.0877974 12.9004 0 13.1123 0 13.3333L0 17.5C0 18.163 0.263392 18.7989 0.732233 19.2678C1.20107 19.7366 1.83696 20 2.5 20H6.66667C6.88768 20 7.09964 19.9122 7.25592 19.7559C7.4122 19.5996 7.5 19.3877 7.5 19.1667C7.5 18.9457 7.4122 18.7337 7.25592 18.5774C7.09964 18.4211 6.88768 18.3333 6.66667 18.3333H2.845L10 11.1783L17.155 18.3333H13.3333C13.1123 18.3333 12.9004 18.4211 12.7441 18.5774C12.5878 18.7337 12.5 18.9457 12.5 19.1667C12.5 19.3877 12.5878 19.5996 12.7441 19.7559C12.9004 19.9122 13.1123 20 13.3333 20H17.5C18.163 20 18.7989 19.7366 19.2678 19.2678C19.7366 18.7989 20 18.163 20 17.5V13.3333C20 13.1123 19.9122 12.9004 19.7559 12.7441C19.5996 12.5878 19.3877 12.5 19.1667 12.5C18.9457 12.5 18.7337 12.5878 18.5774 12.7441C18.4211 12.9004 18.3333 13.1123 18.3333 13.3333V17.155L11.1783 10L18.3333 2.845V6.66667C18.3333 6.88768 18.4211 7.09964 18.5774 7.25592C18.7337 7.4122 18.9457 7.5 19.1667 7.5Z" fill="#374258"/>
</g>
<defs>
<clipPath id="clip0_69_1190">
<rect width="20" height="20" fill="white"/>
</clipPath>
</defs>
</svg>
