<svg width="20" height="20" viewBox="0 0 20 20" fill="none" xmlns="http://www.w3.org/2000/svg">
<g clip-path="url(#clip0_69_203)">
<path d="M20 2.50001V14.2C20 16.05 18.7575 17.6975 16.9783 18.2067L11.3733 19.8075C10.475 20.0642 9.525 20.0642 8.62667 19.8075L3.02167 18.2067C1.2425 17.6983 0 16.0508 0 14.2V3.33335C0.005 2.24335 1.66167 2.24418 1.66667 3.33335V14.2C1.66667 15.3108 2.4125 16.2992 3.48 16.6042L9.085 18.205C9.68417 18.3758 10.3167 18.3758 10.9167 18.205L16.5208 16.6042C17.5883 16.2992 18.3342 15.3108 18.3342 14.2V2.50001C18.3392 1.41001 19.995 1.41085 20 2.50001ZM3.33333 12.4475V3.33335C3.33333 2.27751 3.81667 1.30751 4.65917 0.672513C5.50167 0.0366799 6.56667 -0.161653 7.5825 0.128347L9.02083 0.53918C9.3925 0.645013 9.725 0.83418 10.0008 1.08168C10.2767 0.83418 10.6092 0.645013 10.9808 0.53918L12.4183 0.128347C14.4692 -0.519987 16.7275 1.18501 16.6675 3.33335V12.4475C16.6675 13.9275 15.6733 15.2458 14.25 15.6525L11.3742 16.4742C10.475 16.7308 9.525 16.7308 8.6275 16.4742L5.75167 15.6525C4.32833 15.2458 3.33333 13.9275 3.33333 12.4475ZM10.8333 14.8942C10.8608 14.8867 13.7908 14.05 13.7908 14.05C14.5025 13.8467 15 13.1875 15 12.4475V3.33335C15 2.80585 14.7583 2.32085 14.3375 2.00251C13.9142 1.68251 13.3783 1.58668 12.8758 1.73001L11.4383 2.14085C11.0825 2.24251 10.8333 2.57168 10.8333 2.94168V14.8942ZM5 12.4475C5 13.1875 5.4975 13.8467 6.20917 14.05C6.20917 14.05 9.13917 14.8867 9.16667 14.8942V2.94251C9.16667 2.57251 8.91833 2.24335 8.5625 2.14168L7.12417 1.73085C6.62167 1.58668 6.085 1.68335 5.6625 2.00335C5.24167 2.32085 5 2.80585 5 3.33418V12.4475Z" fill="#F1F5F8"/>
</g>
<defs>
<clipPath id="clip0_69_203">
<rect width="20" height="20" fill="white"/>
</clipPath>
</defs>
</svg>
