<svg width="20" height="20" viewBox="0 0 20 20" fill="none" xmlns="http://www.w3.org/2000/svg">
<g clip-path="url(#clip0_69_184)">
<path d="M18.3333 0H14.1667C13.2475 0 12.5 0.7475 12.5 1.66667V4.16667C12.5 5.08583 13.2475 5.83333 14.1667 5.83333H15.4167V8.33333H11.25L10 6.66667C9.2175 5.62333 7.97083 5 6.66667 5H5C3.16167 5 1.66667 6.495 1.66667 8.33333V10.8333C1.66667 12.0617 2.34167 13.125 3.33333 13.7033V19.1667C3.33333 19.6267 3.70583 20 4.16667 20C4.6275 20 5 19.6267 5 19.1667V14.1667H6.66667V19.1667C6.66667 19.6267 7.03917 20 7.5 20C7.96083 20 8.33333 19.6267 8.33333 19.1667V10C8.33333 9.54 7.96083 9.16667 7.5 9.16667C7.03917 9.16667 6.66667 9.54 6.66667 10V12.5H5C4.08083 12.5 3.33333 11.7525 3.33333 10.8333V8.33333C3.33333 7.41417 4.08083 6.66667 5 6.66667H6.66667C7.44917 6.66667 8.19667 7.04083 8.66667 7.66667L10.1667 9.66667C10.3233 9.87583 10.5708 10 10.8333 10H15.4167C16.3358 10 17.0833 9.2525 17.0833 8.33333V5.83333H18.3333C19.2525 5.83333 20 5.08583 20 4.16667V1.66667C20 0.7475 19.2525 0 18.3333 0ZM14.1667 4.16667V1.66667H18.3333V4.16667H14.1667ZM3.75 2.08333C3.75 0.9325 4.6825 0 5.83333 0C6.98417 0 7.91667 0.9325 7.91667 2.08333C7.91667 3.23417 6.98417 4.16667 5.83333 4.16667C4.6825 4.16667 3.75 3.23417 3.75 2.08333Z" fill="#F1F5F8"/>
</g>
<defs>
<clipPath id="clip0_69_184">
<rect width="20" height="20" fill="white"/>
</clipPath>
</defs>
</svg>
